# xmcd
#
# Track frame offsets: 
#        150
#        14350
#        24487
#        37312
#        45875
#        65675
#        76950
#        89637
#        101000
#        114087
#        126300
#        138862
#        148662
#        162062
#        172700
#        185075
#
# Disc length: 2654 seconds
#
# Revision: 0
# Processed by: cddbd v1.5.1PL2 Copyright (c) Steve Scherf et al.
# Submitted via: ExactAudioCopy v0.95b3
#
DISCID=d10a5c10
DTITLE=Various Artist - The Best Of Country
DYEAR=1993
DGENRE=Country
TTITLE0=Bill Monroe/Blue Moon Of Kentucky
TTITLE1=Johnny Horton/Honky Tonk Man
TTITLE2=Johnny Horton/North To Alaska
TTITLE3=Johnny Western/The Ballad Of Paladin
TTITLE4=Marty Robbins/El Paso
TTITLE5=Marty Robbins/Kaw-Liga
TTITLE6=Johnny Cash with June Carter/Jackson
TTITLE7=Johnny Cash/Green Green Grass Of Home
TTITLE8=Tammy Wynette with David Houston/My Elusive Dreams
TTITLE9=Tammy Wynette/Stand By Your Man
TTITLE10=Charlie Rich/The Most Beautiful Girl
TTITLE11=Lester Flatt And Earl Scruggs/Foggy Mountain Breakdown
TTITLE12=Lynn Anderson/Rose Garden
TTITLE13=Willie Nelson/Blue Eyes Crying In The Rain
TTITLE14=Ray Price/Release Me
TTITLE15=David Bromberg/Tennessee Waltz
EXTD=
EXTT0=
EXTT1=
EXTT2=
EXTT3=
EXTT4=
EXTT5=
EXTT6=
EXTT7=
EXTT8=
EXTT9=
EXTT10=
EXTT11=
EXTT12=
EXTT13=
EXTT14=
EXTT15=
PLAYORDER=
